<?xml version="1.0" standalone="no"?>
<!DOCTYPE svg PUBLIC "-//W3C//DTD SVG 20010904//EN"
 "http://www.w3.org/TR/2001/REC-SVG-20010904/DTD/svg10.dtd">
<svg version="1.0" xmlns="http://www.w3.org/2000/svg"
 width="944.000000pt" height="1120.000000pt" viewBox="0 0 944.000000 1120.000000"
 preserveAspectRatio="xMidYMid meet">

<g transform="translate(0.000000,1120.000000) scale(0.100000,-0.100000)"
fill="#000000" stroke="none">
<path d="M1960 6934 c-316 -26 -605 -142 -860 -343 -106 -84 -250 -236 -329
-349 -73 -103 -154 -242 -141 -242 5 0 12 5 15 10 4 6 50 44 104 84 361 273
679 405 1049 435 332 27 767 -67 1362 -295 491 -187 573 -214 662 -214 35 0
54 6 75 24 25 21 28 32 31 99 7 124 -37 234 -137 348 -56 64 -77 72 -43 17 22
-35 67 -176 60 -184 -3 -2 -21 22 -41 54 -46 74 -146 169 -234 221 -183 108
-526 208 -973 285 -223 38 -482 60 -600 50z"/>
<path d="M7240 6929 c-226 -19 -597 -86 -859 -155 -361 -94 -582 -219 -692
-390 -23 -35 -44 -62 -46 -60 -9 8 28 121 57 173 24 45 25 51 9 42 -33 -17
-109 -120 -146 -196 -29 -60 -36 -88 -40 -156 -14 -211 68 -219 524 -46 650
246 872 315 1188 369 521 89 1022 -58 1499 -440 48 -39 90 -69 92 -67 7 7
-123 217 -182 293 -30 40 -109 125 -175 188 -346 334 -764 485 -1229 445z"/>
<path d="M2265 5680 c-179 -13 -362 -61 -564 -149 -87 -38 -276 -144 -286
-161 -3 -5 54 20 127 54 403 192 808 245 1193 156 251 -58 573 -211 753 -357
65 -53 50 -23 -20 38 -294 257 -604 390 -972 419 -67 5 -123 9 -126 8 -3 0
-50 -4 -105 -8z"/>
<path d="M6925 5679 c-344 -32 -698 -189 -934 -416 l-76 -74 66 49 c288 213
669 359 994 381 307 20 668 -58 962 -208 65 -33 119 -59 120 -57 1 1 -27 21
-62 45 -319 209 -713 312 -1070 280z"/>
<path d="M3875 5605 c135 -189 224 -445 256 -740 11 -109 7 -484 -7 -550 -4
-16 -4 -27 0 -24 10 10 33 153 46 294 35 368 -62 754 -247 985 -86 108 -115
129 -48 35z"/>
<path d="M5570 5623 c-100 -109 -169 -229 -220 -383 -28 -83 -65 -278 -55
-288 2 -3 6 1 8 9 3 8 15 52 27 99 51 187 147 401 235 524 28 40 55 78 59 84
16 26 -5 9 -54 -45z"/>
<path d="M2110 5400 c-148 -19 -255 -45 -406 -98 -150 -53 -164 -56 -249 -56
-98 1 -203 30 -294 80 l-46 26 53 -51 c31 -29 83 -65 123 -84 38 -17 69 -35
69 -38 0 -4 -33 -10 -72 -13 -134 -12 -290 21 -408 86 l-55 30 40 -42 c61 -63
168 -130 264 -163 71 -25 106 -31 203 -35 111 -4 122 -3 235 31 251 76 417
104 673 113 360 14 771 -56 1236 -211 104 -34 191 -61 192 -59 8 6 -169 130
-278 194 -216 128 -462 223 -690 267 -99 19 -166 25 -325 28 -110 2 -229 0
-265 -5z"/>
<path d="M6895 5399 c-330 -42 -649 -162 -935 -355 -132 -88 -176 -122 -168
-129 2 -2 40 9 84 25 248 93 624 188 895 226 153 22 516 25 669 6 133 -17 304
-54 443 -98 185 -58 356 -46 524 37 54 27 106 63 150 105 l68 63 -80 -39
c-113 -57 -187 -73 -328 -73 -75 0 -123 5 -130 12 -8 8 -7 11 5 11 33 0 155
71 198 116 l45 47 -45 -26 c-87 -50 -197 -80 -295 -81 -82 0 -98 3 -185 38
-120 49 -289 92 -437 111 -123 16 -364 18 -478 4z"/>
<path d="M780 5002 c56 -37 298 -53 395 -27 49 13 47 13 -50 8 -87 -4 -235 6
-330 23 -22 4 -26 3 -15 -4z"/>
<path d="M8600 4998 c-25 -6 -119 -11 -209 -11 -177 -1 -180 -14 -6 -24 97 -5
222 10 287 37 23 9 23 9 -2 8 -14 0 -45 -5 -70 -10z"/>
<path d="M1162 4870 c-73 -19 -155 -56 -231 -104 -67 -42 -54 -45 22 -5 104
54 236 96 357 112 l105 15 -90 0 c-58 1 -116 -6 -163 -18z"/>
<path d="M8050 4888 c0 -3 44 -11 98 -18 113 -14 246 -55 349 -109 88 -46 76
-26 -16 29 -101 60 -208 91 -328 98 -57 2 -103 3 -103 0z"/>
<path d="M3225 4739 c-337 -101 -610 -143 -934 -143 -285 -1 -249 -15 59 -23
188 -5 235 -3 365 16 179 26 294 54 474 116 121 42 202 75 176 74 -5 -1 -68
-19 -140 -40z"/>
<path d="M6124 4759 c116 -63 462 -154 686 -180 113 -13 480 -6 560 10 31 6
-3 7 -110 4 -321 -11 -693 43 -1060 154 -47 14 -92 28 -100 30 -8 2 3 -6 24
-18z"/>
<path d="M1453 4726 c-33 -8 -74 -22 -90 -31 -17 -10 -20 -14 -8 -11 116 28
292 40 389 27 88 -12 108 -9 49 9 -61 18 -268 22 -340 6z"/>
<path d="M7682 4723 c-35 -8 -62 -16 -60 -19 2 -2 44 1 94 7 96 11 205 5 323
-17 41 -8 76 -12 78 -10 6 5 -81 32 -145 45 -73 15 -215 12 -290 -6z"/>
</g>
</svg>
