<svg width="778" height="268" viewBox="0 0 778 268" fill="none" xmlns="http://www.w3.org/2000/svg">
<path d="M126.228 0.243678C96.2679 2.87386 68.868 14.6085 44.6916 34.9418C34.6418 43.4393 20.9893 58.8157 13.4993 70.2469C6.57827 80.6664 -1.10129 94.7278 0.131234 94.7278C0.60528 94.7278 1.26895 94.222 1.55337 93.7162C1.93261 93.1092 6.29384 89.2651 11.4135 85.2187C45.6397 57.6018 75.7891 44.2486 110.869 41.2138C142.345 38.4824 183.587 47.9915 239.999 71.0562C286.55 89.9732 294.325 92.7046 302.763 92.7046C306.081 92.7046 307.882 92.0976 309.873 90.2767C312.244 88.1523 312.528 87.0396 312.812 80.2618C313.476 67.7179 309.304 56.5902 299.824 45.0579C294.514 38.5836 292.523 37.7743 295.747 43.3381C297.833 46.8788 302.099 61.1424 301.435 61.9517C301.151 62.154 299.444 59.7262 297.548 56.489C293.187 49.0031 283.706 39.3929 275.363 34.1325C258.013 23.2072 225.493 13.0911 183.113 5.30171C161.971 1.45761 137.415 -0.767929 126.228 0.243678Z" fill="#F8A1D5" fill-opacity="0.9"/>
<path d="M626.821 0.74943C605.394 2.67148 570.22 9.44925 545.38 16.4293C511.154 25.9384 490.201 38.5835 479.772 55.882C477.591 59.4226 475.6 62.154 475.41 61.9517C474.557 61.1424 478.065 49.7112 480.815 44.4509C483.09 39.8986 483.185 39.2917 481.668 40.2021C478.539 41.9218 471.334 52.3414 467.826 60.0296C465.076 66.0993 464.413 68.9318 464.033 75.8107C462.706 97.1556 470.48 97.9649 513.713 80.4641C575.339 55.5785 596.387 48.5984 626.347 43.1358C675.742 34.1325 723.242 49.0031 768.466 87.6465C773.017 91.5918 776.999 94.6266 777.188 94.4243C777.852 93.7161 765.527 72.4724 759.933 64.7842C757.089 60.7377 749.599 52.1391 743.342 45.7659C710.538 11.9783 670.907 -3.297 626.821 0.74943Z" fill="#F8A1D5" fill-opacity="0.9"/>
<path d="M155.144 127.099C138.174 128.414 120.823 133.27 101.672 142.172C93.4236 146.016 75.5046 156.739 74.5565 158.459C74.2721 158.965 79.6762 156.436 86.5973 152.996C124.805 133.574 163.203 128.212 199.705 137.215C223.502 143.083 254.031 158.56 271.096 173.33C277.259 178.691 275.837 175.656 269.2 169.486C241.326 143.487 211.935 130.033 177.045 127.099C170.693 126.593 165.384 126.189 165.099 126.29C164.815 126.29 160.359 126.695 155.144 127.099Z" fill="#F8A1D5" fill-opacity="0.9"/>
<path d="M596.956 127.2C564.341 130.437 530.779 146.32 508.404 169.283L501.198 176.769L507.456 171.812C534.761 150.265 570.883 135.496 601.696 133.27C630.803 131.247 665.029 139.137 692.903 154.311C699.066 157.65 704.185 160.28 704.28 160.078C704.375 159.976 701.72 157.953 698.402 155.525C668.158 134.383 630.803 123.963 596.956 127.2Z" fill="#F8A1D5" fill-opacity="0.9"/>
<path d="M307.787 134.686C320.587 153.806 329.025 179.703 332.059 209.545C333.102 220.572 332.722 258.507 331.395 265.184C331.016 266.802 331.016 267.915 331.395 267.611C332.343 266.6 334.524 252.134 335.756 237.87C339.075 200.643 329.878 161.595 312.338 138.227C304.185 127.302 301.435 125.177 307.787 134.686Z" fill="#F8A1D5" fill-opacity="0.9"/>
<path d="M468.489 132.865C459.008 143.892 452.466 156.031 447.631 171.61C444.977 180.006 441.469 199.733 442.417 200.744C442.606 201.048 442.986 200.643 443.175 199.834C443.46 199.024 444.597 194.573 445.735 189.819C450.57 170.902 459.672 149.253 468.015 136.811C470.67 132.764 473.23 128.92 473.609 128.313C475.126 125.683 473.135 127.403 468.489 132.865Z" fill="#F8A1D5" fill-opacity="0.9"/>
<path d="M140.449 155.424C126.417 157.346 116.273 159.976 101.956 165.338C87.735 170.7 86.4077 171.003 78.3489 171.003C69.0576 170.902 59.1026 167.968 50.475 162.91L46.1137 160.28L51.1386 165.439C54.0777 168.373 59.0078 172.015 62.8002 173.937C66.4029 175.656 69.342 177.477 69.342 177.781C69.342 178.185 66.2133 178.792 62.5157 179.096C49.8113 180.31 35.021 176.971 23.8335 170.396L18.619 167.361L22.4114 171.61C28.1948 177.983 38.3394 184.761 47.4411 188.099C54.1725 190.628 57.4908 191.235 66.6874 191.64C77.2112 192.044 78.2541 191.943 88.9675 188.504C112.765 180.816 128.503 177.983 152.774 177.073C186.906 175.656 225.872 182.738 269.959 198.418C279.819 201.857 288.067 204.588 288.162 204.386C288.92 203.779 272.139 191.235 261.805 184.761C241.326 171.812 218.003 162.202 196.387 157.751C187 155.829 180.648 155.222 165.573 154.918C155.144 154.716 143.862 154.918 140.449 155.424Z" fill="#F8A1D5" fill-opacity="0.9"/>
<path d="M594.112 155.525C562.825 159.774 532.58 171.913 505.465 191.437C492.95 200.34 488.778 203.779 489.537 204.487C489.727 204.689 493.329 203.577 497.501 201.958C521.014 192.55 556.662 182.94 582.355 179.096C596.861 176.87 631.277 176.567 645.783 178.489C658.392 180.209 674.605 183.952 687.783 188.403C705.323 194.27 721.535 193.056 737.463 184.66C742.583 181.928 747.513 178.287 751.685 174.038L758.132 167.665L750.547 171.61C739.834 177.376 732.818 178.995 719.45 178.995C712.339 178.995 707.788 178.489 707.124 177.781C706.366 176.971 706.461 176.668 707.598 176.668C710.727 176.668 722.294 169.486 726.371 164.933L730.637 160.179L726.371 162.809C718.122 167.867 707.693 170.902 698.402 171.003C690.628 171.003 689.111 170.699 680.862 167.159C669.485 162.202 653.462 157.852 639.431 155.93C627.769 154.311 604.92 154.109 594.112 155.525Z" fill="#F8A1D5" fill-opacity="0.9"/>
<path d="M14.3527 195.686C19.662 199.429 42.6058 201.048 51.8023 198.418C56.448 197.102 56.2584 197.102 47.0619 197.608C38.8135 198.013 24.7817 197.001 15.7748 195.282C13.689 194.877 13.3098 194.978 14.3527 195.686Z" fill="#F8A1D5" fill-opacity="0.9"/>
<path d="M755.762 196.091C753.391 196.698 744.479 197.204 735.946 197.204C719.165 197.305 718.881 198.62 735.378 199.631C744.574 200.137 756.425 198.62 762.588 195.888C764.768 194.978 764.768 194.978 762.398 195.079C761.071 195.079 758.132 195.585 755.762 196.091Z" fill="#F8A1D5" fill-opacity="0.9"/>
<path d="M50.5697 209.039C43.6487 210.961 35.8743 214.704 28.6688 219.56C22.3166 223.809 23.5491 224.112 30.7546 220.066C40.6148 214.603 53.1296 210.354 64.6015 208.736L74.5565 207.218H66.0237C60.5247 207.117 55.0258 207.825 50.5697 209.039Z" fill="#F8A1D5" fill-opacity="0.9"/>
<path d="M703.616 207.219C703.616 207.522 707.788 208.331 712.908 209.039C723.621 210.456 736.231 214.603 745.996 220.066C754.339 224.719 753.202 222.696 744.479 217.132C734.904 211.063 724.759 207.927 713.382 207.219C707.978 207.016 703.616 206.915 703.616 207.219Z" fill="#F8A1D5" fill-opacity="0.9"/>
<path d="M246.161 222.291C214.211 232.509 188.328 236.757 157.61 236.757C130.589 236.859 134.002 238.275 163.203 239.084C181.027 239.59 185.484 239.388 197.809 237.466C214.78 234.835 225.683 232.003 242.748 225.731C254.22 221.482 261.9 218.144 259.435 218.245C258.961 218.346 252.988 220.167 246.161 222.291Z" fill="#F8A1D5" fill-opacity="0.9"/>
<path d="M521.014 220.268C532.012 226.641 564.816 235.847 586.053 238.477C596.766 239.792 631.561 239.084 639.146 237.466C642.085 236.859 638.862 236.757 628.717 237.061C598.283 238.174 563.014 232.711 528.219 221.482C523.763 220.066 519.497 218.65 518.738 218.447C517.98 218.245 519.023 219.054 521.014 220.268Z" fill="#F8A1D5" fill-opacity="0.9"/>
<path d="M78.1593 223.606C75.0306 224.416 71.1434 225.832 69.6265 226.742C68.0147 227.754 67.7303 228.159 68.868 227.855C79.8659 225.023 96.5523 223.809 105.749 225.124C114.092 226.338 115.988 226.034 110.395 224.213C104.611 222.393 84.9856 221.988 78.1593 223.606Z" fill="#F8A1D5" fill-opacity="0.9"/>
<path d="M668.727 223.91C665.408 224.719 662.848 225.529 663.038 225.832C663.228 226.034 667.21 225.731 671.95 225.124C681.052 224.011 691.386 224.618 702.574 226.844C706.461 227.653 709.779 228.058 709.969 227.855C710.538 227.349 702.289 224.618 696.221 223.303C689.3 221.786 675.837 222.089 668.727 223.91Z" fill="#F8A1D5" fill-opacity="0.9"/>
</svg>
